<?xml version="1.0" encoding="UTF-8"?>
<!-- Generator: visioncortex VTracer 0.6.3 -->
<svg version="1.1" xmlns="http://www.w3.org/2000/svg" width="1280" height="1280">
<path d="M0 0 C422.4 0 844.8 0 1280 0 C1280 422.4 1280 844.8 1280 1280 C857.6 1280 435.2 1280 0 1280 C0 857.6 0 435.2 0 0 Z " fill="#000100" transform="translate(0,0)"/>
<path d="M0 0 C3.86 2.82 5.63 5.49 7 10 C7.31 13.35 7.32 16.68 7.34 20.04 C7.36 21.01 7.37 21.97 7.39 22.97 C7.45 27.09 7.49 31.21 7.53 35.32 C7.57 38.34 7.61 41.35 7.66 44.36 C7.66 45.76 7.66 45.76 7.67 47.19 C7.69 48.06 7.7 48.92 7.71 49.81 C7.72 50.96 7.72 50.96 7.73 52.12 C7.84 54.24 7.84 54.24 10 56 C12.55 56.27 12.55 56.27 15.58 56.2 C17.38 56.21 17.38 56.21 19.21 56.22 C20.19 56.23 20.19 56.23 21.19 56.23 C55.88 56.51 90.37 62.7 124.07 70.55 C126.88 71.2 129.71 71.83 132.53 72.46 C149.73 76.42 166.34 82.25 183 88 C184.73 88.59 186.45 89.18 188.18 89.76 C203.38 94.97 218.3 100.94 232.77 107.93 C235.39 109.19 238.04 110.42 240.68 111.65 C254.34 118.05 267.53 125.02 280.57 132.6 C282.64 133.79 284.72 134.96 286.81 136.11 C308.33 147.99 328.75 162.72 348 178 C348.63 178.5 349.27 179 349.92 179.52 C358.35 186.22 366.51 193.11 374.36 200.49 C375.59 201.62 376.83 202.73 378.08 203.84 C385.09 210.04 391.73 216.57 398.33 223.2 C400.19 225.07 402.06 226.93 403.92 228.78 C409.83 234.69 415.63 240.6 421 247 C422.01 248.17 423.02 249.33 424.03 250.49 C441.32 270.56 457.3 291.82 471.73 314.05 C472.59 315.38 473.46 316.7 474.34 318.03 C487.29 337.73 498.97 358.65 509 380 C509.39 380.82 509.78 381.65 510.18 382.5 C515.35 393.54 520.17 404.64 524.48 416.04 C525.76 419.4 527.13 422.7 528.56 426 C531.47 432.89 533.75 439.98 536.04 447.1 C536.79 449.38 537.57 451.64 538.35 453.91 C542.16 464.98 545.28 476.13 548.06 487.5 C548.28 488.37 548.49 489.25 548.72 490.15 C557.76 526.92 562.92 564.06 564.78 601.88 C564.77 603.98 564.77 603.98 566 605 C567.61 605.1 569.22 605.13 570.82 605.13 C571.85 605.13 572.88 605.13 573.94 605.14 C575.06 605.14 576.18 605.14 577.33 605.14 C579.68 605.16 582.03 605.18 584.38 605.2 C588.1 605.23 591.82 605.25 595.54 605.25 C599.11 605.25 602.69 605.29 606.27 605.33 C607.94 605.32 607.94 605.32 609.64 605.31 C617.37 605.43 617.37 605.43 620.65 608.4 C621.1 609.26 621.54 610.12 622 611 C622.43 611.76 622.87 612.53 623.31 613.31 C624.27 617.06 624.22 620.31 623 624 C620.26 626.74 617.74 628.91 613.79 629.12 C612.41 629.12 612.41 629.12 611 629.11 C609.44 629.11 609.44 629.11 607.85 629.11 C606.72 629.11 605.59 629.1 604.43 629.1 C603.28 629.1 602.13 629.09 600.94 629.09 C597.25 629.09 593.56 629.08 589.88 629.06 C587.38 629.06 584.88 629.05 582.39 629.05 C576.26 629.04 570.13 629.02 564 629 C563.99 629.83 563.98 630.66 563.97 631.52 C563.06 699.74 548.53 767.99 521.92 830.82 C520.93 833.16 519.98 835.5 519.02 837.85 C515.17 847.24 511 856.39 506.34 865.41 C505 867.99 503.69 870.58 502.37 873.17 C501.06 875.74 499.75 878.31 498.43 880.87 C497.78 882.15 497.13 883.42 496.48 884.69 C492.84 891.85 489 898.77 484.6 905.49 C483.13 907.8 481.79 910.13 480.49 912.54 C477.67 917.71 474.42 922.56 471.12 927.44 C470.54 928.31 469.95 929.19 469.35 930.1 C465.31 936.12 461.18 942.07 457 948 C456.57 948.62 456.14 949.23 455.69 949.87 C444.53 965.8 432.42 980.94 419.31 995.31 C418.63 996.07 418.63 996.07 417.93 996.84 C415.93 999.02 413.92 1001.07 411.67 1003 C406.5 1007.45 405.05 1011.31 403.57 1017.95 C399.37 1036.07 387.21 1052.53 374.4 1065.57 C373.15 1066.84 371.94 1068.15 370.73 1069.46 C354.6 1086.54 328.38 1100.8 305 1104 C304.01 1103.67 303.02 1103.34 302 1103 C303 1101 303 1101 306 1100 C336.5 1085.89 357.34 1058.57 368.84 1027.67 C382.1 990.64 381.91 948.92 368 912 C367.34 911.67 366.68 911.34 366 911 C365.92 912.07 365.84 913.14 365.75 914.25 C363.35 933.42 353.22 954.13 344 971 C343.43 972.04 342.87 973.08 342.29 974.16 C340.32 977.76 338.35 981.35 336.38 984.94 C335.74 986.09 335.11 987.24 334.45 988.42 C331.25 994.17 327.97 999.74 324.15 1005.1 C322.52 1007.8 321.74 1009.81 322.42 1012.94 C322.61 1013.62 322.8 1014.3 323 1015 C324.62 1034.65 321.64 1049.6 309 1065 C294.72 1080.22 275.15 1084.33 255 1085 C231.13 1085.74 208.45 1084.89 188.5 1070.5 C186.23 1068.81 186.23 1068.81 184.19 1069.14 C181.15 1070.33 178.98 1072.2 176.44 1074.25 C156.97 1089.35 131.26 1089.94 107.62 1087.31 C96.44 1085.71 84.22 1081.22 76.61 1072.39 C74.87 1070.57 74.87 1070.57 71.16 1071.14 C69.6 1071.35 68.05 1071.58 66.5 1071.81 C64.86 1072.03 63.22 1072.24 61.59 1072.44 C60.79 1072.54 60 1072.64 59.19 1072.75 C42.41 1074.69 26.82 1070.41 13.46 1060.08 C6.28 1054.01 2.41 1047.38 -1.52 1038.98 C-2.82 1035.97 -2.82 1035.97 -5 1034 C-5.21 1032.11 -5.21 1032.11 -5.17 1029.82 C-5.2 1019.3 -5.36 1011.08 -13 1003 C-14.32 1001.99 -15.65 1000.98 -17 1000 C-18.02 1005.01 -19.02 1010.03 -19.89 1015.07 C-20.2 1016.76 -20.51 1018.44 -20.81 1020.12 C-20.95 1020.97 -21.09 1021.81 -21.24 1022.68 C-22.33 1028.55 -24.18 1033.34 -28 1038 C-31.8 1040.54 -33.49 1040.6 -38 1040 C-41.58 1038.02 -44.38 1035.62 -45.86 1031.75 C-46.41 1029.15 -46.8 1026.57 -47.12 1023.94 C-48.45 1015.36 -50.4 1007.95 -54 1000 C-55.93 999.96 -55.93 999.96 -58 1001 C-60.74 1006.07 -61.91 1011.33 -63.06 1016.94 C-66.5 1033.19 -66.5 1033.19 -68.25 1036 C-70.93 1037.53 -72.95 1037.26 -76 1037 C-87.01 1031.32 -92.65 1022.17 -97 1011 C-97.9 1008.03 -98.54 1005.05 -99.12 1002 C-99.29 1001.15 -99.46 1000.31 -99.63 999.44 C-101.31 990.3 -101.93 981.1 -102.56 971.84 C-102.98 965.81 -103.73 959.87 -104.63 953.89 C-105.54 946.77 -105.54 946.77 -103.28 943.53 C-102.51 942.67 -101.73 941.82 -100.94 940.94 C-86.4 923.81 -80.42 903.26 -82 881 C-83.95 864.81 -90.87 848.93 -102 837 C-102.74 836.16 -103.47 835.32 -104.23 834.46 C-112.98 825.01 -123.32 819.32 -135.67 815.79 C-138 815 -138 815 -140 813 C-140.2 810.56 -140.26 808.23 -140.25 805.79 C-140.25 805.04 -140.25 804.28 -140.25 803.51 C-140.26 800.98 -140.25 798.45 -140.24 795.91 C-140.24 794.1 -140.25 792.29 -140.25 790.48 C-140.25 785.56 -140.25 780.63 -140.24 775.71 C-140.23 770.56 -140.23 765.42 -140.23 760.27 C-140.23 751.63 -140.22 742.99 -140.21 734.35 C-140.19 724.34 -140.18 714.34 -140.19 704.34 C-140.19 694.73 -140.18 685.12 -140.17 675.51 C-140.17 671.42 -140.17 667.32 -140.17 663.23 C-140.17 658.41 -140.16 653.59 -140.15 648.77 C-140.15 646.99 -140.15 645.22 -140.15 643.45 C-140.15 641.04 -140.14 638.62 -140.13 636.21 C-140.14 635.5 -140.14 634.79 -140.14 634.06 C-140.11 629.23 -140.11 629.23 -139 627 C-136.83 626.39 -136.83 626.39 -133.96 625.89 C-132.91 625.69 -131.87 625.5 -130.79 625.3 C-129.66 625.1 -128.53 624.9 -127.38 624.69 C-85.61 616.68 -51.32 593.68 -27 559 C-24.87 555.73 -22.85 552.44 -21 549 C-12.6 554.6 -9.77 572.69 -6.89 582.14 C-5.91 585.28 -4.89 588.41 -3.87 591.54 C1.58 608.32 5.73 625.09 9.25 642.37 C9.98 645.92 10.77 649.46 11.57 652.99 C13.15 660.34 14.15 667.73 15.06 675.19 C15.23 676.55 15.4 677.9 15.58 679.26 C16.86 689.49 18.01 699.74 19 710 C19.15 709.44 19.3 708.88 19.46 708.31 C22.65 696.55 26.12 685.18 31 674 C31.4 673.08 31.8 672.15 32.21 671.2 C34.68 665.62 37.36 660.15 40.06 654.69 C40.39 654.02 40.72 653.35 41.06 652.66 C42.66 649.45 44.21 646.72 46.37 643.83 C48.31 641.18 48.31 641.18 47.52 638.57 C47.02 637.72 46.52 636.87 46 636 C45.34 634.88 44.69 633.77 44.01 632.62 C43.24 631.37 42.46 630.12 41.69 628.88 C37.96 622.77 34.71 616.63 32 610 C31.54 608.92 31.54 608.92 31.07 607.82 C28.58 601.85 26.8 595.93 25.38 589.62 C25.16 588.7 24.95 587.78 24.73 586.83 C20.48 568.11 19.33 550.97 22 532 C22.09 531.33 22.17 530.65 22.26 529.95 C24.1 516.17 28.63 501.97 35.27 489.72 C37.07 486.23 37.3 483.9 36.75 479.94 C34.99 462.97 35.69 445.88 38 429 C38.11 428.12 38.22 427.24 38.33 426.34 C39.5 418.08 41.9 410.41 44.58 402.54 C45.31 400.38 46.03 398.2 46.75 396.02 C49.29 388.39 52.09 381.06 56 374 C75.86 372.49 100.5 383.99 115.77 396.44 C120.55 400.61 125.12 405 129.46 409.61 C133.26 413.69 133.26 413.69 138.39 415.11 C141.01 414.6 143.46 413.84 146 413 C149.65 412.22 153.32 411.61 157 411 C158.09 410.81 159.18 410.62 160.3 410.43 C182.76 407.06 208.13 406.99 229.77 414.5 C232.3 415.07 233.59 414.94 236 414 C238.09 412.21 240.04 410.42 242 408.5 C260.16 391.32 288.48 372.77 314.42 371.88 C319.79 372.18 323.58 372.78 328 376 C343.49 395.21 342.81 427.92 340.71 451.24 C340.16 456.33 339.49 461.39 338.75 466.46 C336.49 478.67 336.49 478.67 339.56 490.25 C354.83 519.9 358.81 556.27 349.79 588.57 C349.06 590.81 348.25 593 347.38 595.19 C346.91 596.45 346.45 597.73 346 599 C345.75 599.67 345.5 600.34 345.24 601.03 C344.56 603.68 344.45 605.31 345 608 C347.15 611.4 349.6 614.4 352.18 617.49 C356.88 623.18 360.39 629.59 364 636 C364.38 636.65 364.75 637.31 365.14 637.98 C377.13 659.03 384.72 682.21 389.55 705.87 C389.96 707.79 390.4 709.7 390.84 711.61 C396.9 739.36 396.02 769.56 393.44 797.66 C392.77 805.65 392.89 810.66 396.62 817.75 C408.81 842.28 412.75 868.61 404.56 895.06 C403.58 897.85 402.34 900.06 400.69 902.5 C398.67 906.69 399.02 908.46 400.23 912.79 C400.97 915.01 400.97 915.01 401.95 917.12 C403.53 921.46 404.28 925.91 405.12 930.44 C405.31 931.37 405.49 932.3 405.68 933.25 C406.56 937.9 407.24 942.25 407 947 C408.32 947 409.64 947 411 947 C413.12 944.87 414.91 942.8 416.75 940.44 C417.59 939.38 417.59 939.38 418.45 938.3 C442.11 908.01 463.38 874 478.45 838.58 C479.74 835.59 481.12 832.7 482.62 829.81 C484.98 825.22 486.81 820.5 488.59 815.66 C489.76 812.64 491 809.68 492.28 806.7 C495.33 799.42 497.81 791.98 500.28 784.48 C501.06 782.13 501.84 779.79 502.63 777.44 C507.23 763.61 511.19 749.67 514.61 735.5 C515.13 733.37 515.65 731.24 516.18 729.1 C518.12 721.11 519.79 713.14 521 705 C521.12 704.23 521.24 703.46 521.37 702.67 C524.71 681.28 527.59 659.5 528.81 637.88 C528.85 637.16 528.89 636.44 528.94 635.71 C529 634.14 529.01 632.57 529 631 C527.04 629.04 523.24 629.85 520.56 629.84 C519.78 629.84 519 629.83 518.2 629.83 C516.5 629.82 514.81 629.81 513.11 629.8 C510.42 629.79 507.73 629.77 505.04 629.75 C497.38 629.69 489.73 629.63 482.08 629.6 C477.4 629.58 472.73 629.54 468.05 629.5 C466.27 629.48 464.49 629.47 462.71 629.47 C460.21 629.47 457.71 629.44 455.21 629.42 C454.48 629.42 453.75 629.42 453 629.43 C447.21 629.33 443 627.9 438.12 624.81 C436.23 621.76 435.89 618.52 436 615 C437.52 610.77 439.09 608.21 443 606 C445.82 605.7 448.43 605.56 451.26 605.57 C452.09 605.56 452.92 605.55 453.77 605.54 C456.51 605.51 459.25 605.5 461.98 605.49 C463.88 605.47 465.78 605.45 467.68 605.43 C472.68 605.39 477.68 605.36 482.68 605.33 C487.78 605.3 492.88 605.25 497.98 605.21 C507.99 605.12 517.99 605.06 528 605 C528.02 602.48 528.03 599.96 528.03 597.44 C528.04 596.39 528.04 596.39 528.05 595.31 C528.07 588.47 527.46 581.74 526.69 574.94 C526.55 573.68 526.41 572.42 526.27 571.12 C525.98 568.59 525.69 566.05 525.4 563.51 C525.05 560.46 524.73 557.41 524.41 554.35 C523.04 541.88 520.63 529.65 518.06 517.38 C517.89 516.56 517.72 515.74 517.55 514.9 C515.69 506.02 513.63 497.33 510.85 488.67 C509.84 485.5 509.09 482.31 508.38 479.06 C506.42 470.81 503.74 462.79 501.06 454.75 C500.85 454.11 500.64 453.47 500.42 452.81 C497.63 444.38 494.52 436.16 491 428 C490.31 426.35 489.62 424.7 488.93 423.04 C479.16 399.86 468.57 376.63 455.1 355.33 C453.57 352.91 452.08 350.48 450.62 348.01 C434.38 320.75 415.27 294.58 394 271 C393.34 270.26 392.68 269.52 392 268.76 C389.68 266.16 387.34 263.58 385 261 C384.54 260.5 384.09 260 383.62 259.48 C374.56 249.51 365.38 239.56 355.1 230.82 C352.98 228.98 350.93 227.08 348.88 225.16 C342.45 219.15 335.7 213.67 328.71 208.32 C327.1 207.07 325.49 205.81 323.89 204.54 C276.52 167.33 219.21 135.9 161.33 118.98 C158.8 118.24 156.3 117.46 153.8 116.64 C120.21 105.7 85.83 99.15 50.74 95.42 C48.27 95.14 45.8 94.83 43.34 94.49 C35.03 93.33 26.84 92.75 18.47 92.44 C16.81 92.38 16.81 92.38 15.11 92.31 C12.41 92.2 9.7 92.1 7 92 C7.01 93.28 7.02 94.55 7.03 95.87 C7.11 107.91 7.17 119.94 7.21 131.98 C7.23 138.17 7.26 144.35 7.3 150.54 C7.35 156.51 7.37 162.48 7.38 168.46 C7.39 170.73 7.4 173.01 7.42 175.29 C7.45 178.48 7.46 181.67 7.45 184.86 C7.47 185.81 7.48 186.75 7.5 187.72 C7.46 193.32 6.79 196.59 3 201 C0.2 203.09 -1.68 204.06 -5.21 203.91 C-10.65 202.97 -13.41 201.37 -17 197 C-17.49 194.2 -17.67 192.01 -17.62 189.22 C-17.63 188.44 -17.63 187.67 -17.64 186.87 C-17.66 184.27 -17.64 181.67 -17.62 179.07 C-17.62 177.21 -17.62 175.34 -17.63 173.48 C-17.65 168.41 -17.63 163.35 -17.61 158.29 C-17.59 153 -17.59 147.7 -17.59 142.4 C-17.59 133.51 -17.57 124.61 -17.54 115.72 C-17.51 105.44 -17.5 95.15 -17.5 84.87 C-17.51 74.98 -17.5 65.09 -17.48 55.19 C-17.47 50.98 -17.47 46.77 -17.47 42.56 C-17.47 37.61 -17.46 32.65 -17.43 27.69 C-17.42 25.87 -17.42 24.05 -17.42 22.23 C-17.43 19.75 -17.41 17.26 -17.39 14.78 C-17.4 13.7 -17.4 13.7 -17.41 12.59 C-17.35 8.23 -16.65 5.49 -14 2 C-9.79 -0.88 -4.9 -0.78 0 0 Z " fill="#F9FBFB" transform="translate(648,20)"/>
<path d="M0 0 C0.72 0.14 1.45 0.28 2.2 0.42 C15.27 2.98 28.7 6.85 40.68 12.75 C47.69 16.18 53.29 17.4 61 17.56 C82.13 18.04 98.88 30.34 115 43 C116.5 44.13 116.5 44.13 118.02 45.29 C130.32 54.61 142.33 64.34 153.64 74.83 C155.8 76.82 158.01 78.73 160.25 80.62 C168.06 87.48 175.72 96.18 177.27 106.88 C177.54 112.73 176.44 117.82 174.81 123.38 C174.62 124.05 174.42 124.72 174.22 125.41 C172.24 131.78 169.61 137.86 167 144 C166.23 145.85 165.47 147.69 164.71 149.54 C144.48 198.5 144.48 198.5 131.81 221.68 C130.71 223.69 129.64 225.72 128.6 227.76 C126.05 232.69 123.74 236 119 239 C115.94 239.62 115.94 239.62 113 239 C107.95 234.97 106.18 230.39 104.06 224.5 C103.72 223.57 103.38 222.64 103.02 221.69 C99.83 212.87 97.23 203.91 94.78 194.86 C93.62 190.62 92.43 186.39 91.24 182.17 C90.36 179.05 89.49 175.93 88.61 172.8 C88.37 171.95 88.13 171.09 87.89 170.21 C87.45 168.62 87.45 168.62 87 167 C86.79 166.27 86.57 165.54 86.35 164.79 C84.14 157.05 82.54 149.21 81 141.31 C80.52 138.89 80.04 136.46 79.56 134.03 C78.53 128.88 77.52 123.72 76.5 118.56 C75.32 112.58 74.14 106.6 72.95 100.62 C72.48 98.25 72.02 95.88 71.55 93.51 C69.92 85.28 68.15 77.11 66 69 C64.31 77.53 63.27 86.03 62.44 94.69 C62.25 96.56 62.25 96.56 62.06 98.47 C60.54 113.89 59.81 129.16 59.81 144.64 C59.81 147.43 59.79 150.22 59.78 153 C59.74 164.16 60.39 174.96 62 186 C62.15 187.05 62.29 188.09 62.44 189.17 C64.4 202.58 67.54 215.22 72 228 C77.17 242.86 82.39 258.13 83 274 C83.04 274.93 83.08 275.85 83.12 276.81 C83.77 306.27 69.9 333.21 50.39 354.55 C45.13 360.06 39.21 364.62 33 369 C31.63 369.98 31.63 369.98 30.23 370.98 C9.87 384.77 -14.77 390.36 -39.06 390.38 C-40.7 390.38 -40.7 390.38 -42.37 390.38 C-71.69 389.98 -98.96 379.21 -121 360 C-121.78 359.35 -122.57 358.7 -123.38 358.02 C-127.54 354.51 -127.54 354.51 -129 353 C-129 352.34 -129 351.68 -129 351 C-129.66 351 -130.32 351 -131 351 C-150.04 330.6 -161.84 303.37 -160.88 275.31 C-160.12 260.04 -155.97 246.36 -151 232 C-148.46 224.4 -146.32 216.71 -144.38 208.94 C-144.17 208.15 -143.96 207.37 -143.75 206.56 C-139.73 190.01 -139.63 172.75 -139.69 155.81 C-139.69 154.82 -139.69 153.83 -139.69 152.81 C-139.73 130.69 -141.09 108.81 -145 87 C-147.48 94.64 -149.19 102.32 -150.75 110.19 C-151.28 112.77 -151.8 115.36 -152.33 117.95 C-152.47 118.61 -152.6 119.27 -152.74 119.95 C-156.36 137.51 -160.43 154.98 -164.75 172.38 C-165.03 173.52 -165.31 174.66 -165.6 175.83 C-166.98 181.32 -168.49 186.7 -170.34 192.05 C-171.27 194.79 -172 197.58 -172.75 200.38 C-181.58 231.58 -181.58 231.58 -189 239 C-193.41 239.69 -195.52 239.29 -199.38 237 C-205.08 231.56 -208.43 223.92 -212 217 C-212.36 216.31 -212.72 215.62 -213.08 214.91 C-222.08 197.44 -229.85 179.41 -237.54 161.34 C-238.94 158.15 -240.43 155.01 -241.94 151.88 C-245.66 143.92 -248.39 135.62 -251.2 127.3 C-251.96 125.11 -252.81 122.97 -253.67 120.82 C-256.63 112.97 -256.14 104.5 -252.75 96.88 C-248.74 89.75 -243 84.45 -237 79 C-236.31 78.37 -235.62 77.73 -234.9 77.08 C-232.96 75.35 -230.99 73.67 -229 72 C-228.04 71.17 -227.07 70.34 -226.08 69.48 C-219.09 63.48 -211.93 57.77 -204.59 52.22 C-203.06 51.04 -201.54 49.84 -200.03 48.64 C-193.31 43.34 -186.37 38.45 -179.25 33.69 C-178.37 33.1 -177.5 32.51 -176.6 31.91 C-163.62 23.31 -152.04 17.97 -136.31 17.56 C-129.57 17.38 -124.59 16.59 -118.55 13.33 C-114.86 11.4 -110.98 10.24 -107.02 8.99 C-104.72 8.24 -102.5 7.42 -100.24 6.54 C-69.37 -5.13 -32.15 -6.49 0 0 Z " fill="#F9FBFB" transform="translate(528,221)"/>
<path d="M0 0 C0.66 0 1.32 0 2 0 C3.61 1.92 5.06 3.83 6.5 5.88 C6.94 6.5 7.38 7.12 7.83 7.76 C16.33 20.06 22.79 33.03 28 47 C28.69 48.58 29.37 50.17 30.06 51.75 C44.53 88.03 45.02 131.78 40 170 C39.88 170.97 39.75 171.93 39.63 172.93 C35.95 200.88 30.08 229.28 21 256 C20.62 257.14 20.25 258.28 19.86 259.46 C13.01 280.17 5.52 300.17 -3.96 319.84 C-4.82 321.63 -5.68 323.43 -6.53 325.22 C-9.52 331.39 -12.84 337.36 -16.25 343.31 C-16.72 344.13 -17.18 344.94 -17.66 345.78 C-19.95 349.72 -22.3 353.51 -25 357.17 C-30.04 363.55 -30.04 363.55 -32.21 371.16 C-31.71 373.93 -30.99 376.38 -30 379 C-28.02 388.69 -28.46 397.07 -33 406 C-38.93 414.76 -46.8 418.72 -57 421 C-58.33 421.11 -59.66 421.19 -61 421.22 C-61.77 421.25 -62.55 421.27 -63.35 421.29 C-66.91 421.36 -70.48 421.42 -74.05 421.46 C-75.92 421.49 -77.78 421.53 -79.65 421.58 C-92.89 421.97 -103.78 421.26 -114.17 412.09 C-120.16 405.85 -120.29 398.66 -120.26 390.44 C-120.26 388.86 -120.26 388.86 -120.27 387.25 C-120.27 384.98 -120.28 382.7 -120.27 380.42 C-120.27 376.82 -120.29 373.21 -120.3 369.6 C-120.35 359.35 -120.37 349.1 -120.38 338.84 C-120.39 332.57 -120.41 326.29 -120.45 320.01 C-120.46 317.63 -120.46 315.24 -120.45 312.85 C-120.45 309.51 -120.46 306.16 -120.49 302.82 C-120.48 301.84 -120.47 300.86 -120.46 299.85 C-120.55 292.46 -122.27 287.22 -127.06 281.56 C-130.37 278.9 -133.64 278.65 -137.81 278.72 C-143.22 279.41 -147 281.79 -150.44 285.94 C-153.42 291.79 -153.12 297.44 -153.07 303.86 C-153.06 304.85 -153.06 305.84 -153.05 306.86 C-153.04 309.01 -153.03 311.15 -153.01 313.3 C-152.99 316.7 -152.98 320.1 -152.97 323.5 C-152.93 333.17 -152.89 342.84 -152.83 352.51 C-152.79 358.43 -152.77 364.35 -152.75 370.27 C-152.75 372.52 -152.73 374.77 -152.71 377.02 C-152.69 380.18 -152.68 383.33 -152.68 386.49 C-152.66 387.41 -152.65 388.33 -152.64 389.27 C-152.67 399.67 -155.2 407.33 -162.46 414.86 C-171.79 422.72 -183.76 422.2 -195.31 422.25 C-196.59 422.27 -197.87 422.29 -199.19 422.31 C-210.66 422.36 -218.59 420.57 -227.38 412.94 C-229.9 408.38 -229.71 404.09 -229 399 C-226.13 392.52 -219.52 387.73 -213.24 384.64 C-210.75 383.19 -210.75 383.19 -210.44 380.43 C-210.68 369.45 -210.68 369.45 -213.99 359.12 C-215.01 356.97 -215.41 355.21 -215.79 352.87 C-216.96 347.33 -219.54 342.92 -222.38 338.06 C-228.82 326.64 -234.32 314.89 -239.69 302.93 C-240.82 300.39 -241.98 297.86 -243.14 295.34 C-251.83 276.37 -259.47 256.89 -265.42 236.89 C-266.22 234.27 -267.15 231.7 -268.06 229.12 C-285.98 175.52 -286.59 114.3 -268 61 C-267.58 59.8 -267.17 58.6 -266.74 57.36 C-262.72 46.54 -256.98 36.84 -251 27 C-240.48 30.99 -240.48 30.99 -236.19 34.12 C-233.21 36.28 -230.45 37.72 -227 39 C-223.06 40.62 -219.32 42.36 -215.56 44.38 C-205.67 49.35 -194.93 52.23 -183.96 53.54 C-181 54 -181 54 -177.66 55.01 C-173.56 56.12 -169.78 56.44 -165.56 56.62 C-164.83 56.66 -164.1 56.7 -163.35 56.74 C-161.56 56.84 -159.78 56.92 -158 57 C-158 57.66 -158 58.32 -158 59 C-156.41 58.75 -156.41 58.75 -154.78 58.5 C-147.95 57.64 -141.07 57.99 -134.2 58.13 C-128.04 58.19 -122.92 57.65 -117 56 C-116.34 56.33 -115.68 56.66 -115 57 C-104.98 57.36 -95.19 55.19 -85.44 53.12 C-84.21 52.87 -82.99 52.61 -81.73 52.35 C-80.56 52.09 -79.39 51.83 -78.18 51.57 C-77.14 51.34 -76.09 51.11 -75.01 50.88 C-71.77 49.93 -69 48.55 -66 47 C-64.34 46.64 -62.67 46.31 -61 46 C-38.34 37.97 -15.3 21.54 -1.44 1.78 C-0.97 1.19 -0.49 0.6 0 0 Z " fill="#000100" transform="translate(971,653)"/>
<path d="M0 0 C0.66 0 1.32 0 2 0 C3.37 1.95 3.37 1.95 5 4.69 C15.4 21.35 29.05 37.73 46 48 C47.2 48.78 48.4 49.56 49.6 50.34 C70.7 64.02 93.6 74.19 118.71 77.51 C121 78 121 78 123 80 C123.19 82.46 123.26 84.8 123.24 87.26 C123.24 88.02 123.24 88.78 123.25 89.56 C123.25 92.11 123.24 94.66 123.23 97.21 C123.23 99.03 123.23 100.86 123.23 102.68 C123.23 107.64 123.22 112.6 123.2 117.56 C123.19 122.74 123.19 127.92 123.19 133.1 C123.18 142.91 123.16 152.73 123.14 162.54 C123.12 173.71 123.11 184.88 123.1 196.05 C123.08 219.03 123.04 242.02 123 265 C119.56 266.48 116.13 267.95 112.64 269.32 C92.95 277.24 79.71 290.88 70.66 309.81 C62.82 329.31 63.21 350.76 70.79 370.22 C74.82 379.44 79.62 387.26 86.18 394.86 C90.09 399.47 89.23 404.38 88.86 410.16 C88.67 412.32 88.46 414.47 88.23 416.63 C88.15 417.42 88.07 418.21 87.98 419.03 C87.81 420.7 87.63 422.37 87.46 424.04 C87.19 426.53 86.94 429.03 86.69 431.53 C82.58 471.16 82.58 471.16 67 485 C63.1 487.62 60.75 488.61 56 488 C52.74 486.19 51.46 484.37 50 481 C49.62 479.35 49.3 477.68 49.04 476.01 C48.87 475.06 48.71 474.1 48.55 473.12 C48.23 471.13 47.91 469.14 47.59 467.15 C46.7 461.91 45.65 457.69 43 453 C43 452.34 43 451.68 43 451 C39.36 452.12 39.36 452.12 36.74 454.75 C34.24 461.24 33.04 467.71 32.13 474.58 C31.27 480.65 29.99 485.28 25.19 489.44 C21.4 491.29 19.97 491.27 16 490 C12.54 488.55 11.26 487.45 9.38 484.19 C6.2 475.69 4.97 466.33 3.53 457.4 C2.95 454.79 2.06 452.46 1 450 C-3.62 451.85 -4.84 454.59 -6.9 458.95 C-8.89 464.48 -9.33 470.2 -10 476 C-10.31 477.92 -10.64 479.84 -11 481.75 C-11.14 482.53 -11.29 483.31 -11.44 484.11 C-12 486 -12 486 -14 488 C-19.98 488 -24.62 483.23 -28.74 479.36 C-32.78 475.06 -34.54 470.67 -36 465 C-36.19 464.37 -36.37 463.74 -36.56 463.09 C-39.34 449.83 -35.16 438 -28 427 C-21.54 418.86 -13.84 411.89 -6.16 404.91 C2.04 397.42 6.29 391.39 7.37 380.15 C7.89 362.25 4.69 343.25 0 326 C-5.35 339.76 -9.69 353.85 -10.3 368.69 C-10.9 382.7 -10.9 382.7 -14.07 386.45 C-16.75 388.06 -16.75 388.06 -19.72 389.43 C-23.75 391.36 -26.83 393.84 -30.19 396.75 C-30.78 397.26 -31.38 397.78 -32 398.31 C-37.22 402.95 -41.26 408.1 -45 414 C-45.5 414.78 -46 415.56 -46.52 416.36 C-47.36 417.68 -48.18 419.01 -48.99 420.34 C-49.95 421.92 -50.98 423.46 -52 425 C-56.72 421.56 -60.28 417.45 -64 413 C-64.93 411.9 -64.93 411.9 -65.88 410.79 C-92.68 378.3 -102.57 341.48 -102 300 C-101.99 298.76 -101.99 297.53 -101.98 296.25 C-101.2 274.63 -90.75 254.02 -75.25 239.31 C-66.68 231.93 -52.99 223 -41 223 C-41.03 222.39 -41.06 221.78 -41.09 221.15 C-41.86 205.19 -42.22 189.27 -42.04 173.3 C-42.01 171.23 -42 169.16 -41.99 167.09 C-41.87 131.07 -34.36 93.95 -23.81 59.65 C-23.09 57.29 -22.38 54.93 -21.69 52.57 C-18.89 43.2 -15.44 34.16 -11.82 25.08 C-10.64 22.07 -9.55 19.03 -8.44 16 C-6.27 10.34 -3.71 4.82 0 0 Z " fill="#F9FBFB" transform="translate(348,569)"/>
<path d="M0 0 C16.37 1.71 33.04 12.21 43.39 24.78 C48.76 32.18 52.74 39.47 51.44 48.86 C50.73 52.33 49.37 55.46 47.94 58.69 C46.1 62.84 44.58 66.36 45 71 C45.84 70.58 46.67 70.15 47.53 69.72 C51.8 67.6 56.11 65.6 60.43 63.61 C63.43 62.22 66.39 60.8 69.34 59.32 C71.63 58.18 73.53 57.58 76 57 C76.66 56.65 77.32 56.3 78 55.94 C80 55 80 55 84 55 C84.33 54.01 84.66 53.02 85 52 C85.97 51.88 86.94 51.75 87.94 51.62 C90.88 51.21 93.73 50.62 96.62 49.94 C101.13 48.91 104.55 48.52 109 50 C111.02 49.94 111.02 49.94 113.22 49.62 C114.06 49.53 114.9 49.43 115.77 49.33 C116.67 49.22 117.57 49.11 118.5 49 C132.59 47.5 146.18 48.24 160.12 50.7 C162.93 51.17 162.93 51.17 165.32 50.38 C169.54 49.78 173 51.43 176.94 52.88 C185.39 56.45 185.39 56.45 194.16 56.3 C196.28 54.8 197.78 53.19 199.44 51.19 C202.14 47.95 205 44.97 208 42 C208.77 41.2 209.53 40.4 210.32 39.57 C215.81 33.89 221.39 29.29 228 25 C228.81 24.43 229.61 23.85 230.44 23.26 C236.14 19.34 242.03 16.54 248.44 14 C249.22 13.68 250 13.37 250.81 13.04 C251.55 12.76 252.29 12.48 253.06 12.19 C253.72 11.93 254.38 11.68 255.07 11.42 C257.36 10.92 258.8 11.28 261 12 C262.77 18.78 260.75 22.76 258 29 C256.78 31.97 255.61 34.95 254.44 37.94 C254.13 38.72 253.82 39.51 253.51 40.32 C251.57 45.33 249.91 50.33 248.62 55.55 C247.96 58.14 247.15 60.65 246.31 63.19 C244.95 67.63 244.74 71.38 245 76 C244.34 76 243.68 76 243 76 C243.04 84.72 245.72 92.72 252 99 C252 99.66 252 100.32 252 101 C252.87 102.08 253.8 103.12 254.75 104.13 C257.97 107.8 260.06 111.51 262.06 115.94 C262.4 116.67 262.74 117.4 263.08 118.15 C274.66 143.99 275.67 170.96 266.56 197.69 C264.39 203.31 261.89 208.71 259 214 C258.44 215.03 257.89 216.06 257.31 217.12 C256.88 217.74 256.45 218.36 256 219 C255.34 219 254.68 219 254 219 C253.92 219.72 253.84 220.44 253.75 221.19 C252.84 224.59 251.4 226.45 249 229 C248.34 229 247.68 229 247 229 C246.91 229.59 246.81 230.19 246.71 230.8 C245.84 233.49 244.73 234.46 242.56 236.25 C241.95 236.77 241.33 237.29 240.69 237.83 C239 239 239 239 237 239 C236.6 239.9 236.6 239.9 236.18 240.82 C232.42 247.73 223.63 252.28 217 256 C216.34 256 215.68 256 215 256 C214.67 256.99 214.34 257.98 214 259 C213.28 259.1 212.56 259.21 211.81 259.31 C208.74 260.06 206.66 261.32 204 263 C201 264 201 264 197 264 C197 264.66 197 265.32 197 266 C196.34 266.66 195.68 267.32 195 268 C194.67 268.66 194.34 269.32 194 270 C190.04 270 186.08 270 182 270 C181.67 270.99 181.34 271.98 181 273 C180.34 272.67 179.68 272.34 179 272 C176.67 271.96 174.33 271.96 172 272 C172 272.66 172 273.32 172 274 C168.54 274.06 165.08 274.09 161.62 274.12 C160.66 274.14 159.69 274.16 158.7 274.18 C152.28 274.22 146.2 273.75 140 272 C139.67 271.67 139.34 271.34 139 271 C133.65 270.73 130.07 271.24 125 273 C121.01 273.76 117.01 274.39 113 275 C113 275.33 113 275.66 113 276 C108.05 276 103.1 276 98 276 C98 275.34 98 274.68 98 274 C95.36 273.67 92.72 273.34 90 273 C90 273.33 90 273.66 90 274 C68.25 272.13 48.06 261.11 31 248 C29.72 247.02 29.72 247.02 28.42 246.02 C14.41 234.33 0.57 215.19 -3 197 C-3 195.07 -3 193.14 -2.97 191.2 C-3.03 187.15 -3.73 183.18 -4.38 179.19 C-4.5 178.34 -4.63 177.5 -4.76 176.63 C-4.89 175.82 -5.02 175 -5.15 174.17 C-5.26 173.44 -5.38 172.71 -5.5 171.96 C-5.96 169.7 -5.96 169.7 -8 167 C-8.44 163.7 -8.33 160.38 -8.31 157.06 C-8.31 156.12 -8.31 155.17 -8.31 154.2 C-8.2 147.09 -7.15 140.78 -5 134 C-4.67 132.33 -4.33 130.67 -4 129 C-3.57 127.6 -3.11 126.2 -2.62 124.81 C-1.47 121.48 -0.49 118.15 0.44 114.75 C1.6 110.77 3.07 108.03 6 105 C5.71 104.46 5.42 103.93 5.12 103.38 C2.39 98.17 0.01 92.85 -2.12 87.38 C-2.84 85.56 -2.84 85.56 -3.57 83.71 C-7.43 72.07 -8.5 60.22 -8.39 48.04 C-8.37 45.87 -8.39 43.7 -8.41 41.54 C-8.43 27.24 -5.71 13.18 0 0 Z " fill="#000100" transform="translate(700,411)"/>
<path d="M0 0 C4.87 2.15 7.48 5.26 9.85 9.9 C12.6 17.31 13.66 25.24 15 33 C15.33 34.85 15.66 36.69 16 38.54 C17.98 49.65 19.8 60.8 21.52 71.96 C22.36 77.35 23.32 82.69 24.41 88.03 C26.09 96.32 27.55 104.64 28.99 112.97 C29.75 117.4 30.53 121.82 31.3 126.25 C31.52 127.54 31.52 127.54 31.75 128.85 C33.3 137.75 34.91 146.63 36.54 155.51 C37.04 158.23 37.53 160.95 38.02 163.68 C38.85 168.29 39.69 172.89 40.54 177.5 C40.98 179.87 41.39 182.24 41.81 184.61 C42.06 185.97 42.31 187.33 42.56 188.69 C42.77 189.85 42.98 191.01 43.19 192.2 C44.06 195.2 44.56 196.14 47 198 C49.35 198.38 49.35 198.38 51.97 198.22 C52.96 198.2 53.94 198.19 54.95 198.17 C55.98 198.13 57 198.1 58.06 198.06 C65.69 197.83 72.57 198.15 80 200 C79.05 202.94 78.09 205.88 77.12 208.81 C76.72 210.06 76.72 210.06 76.31 211.34 C76.04 212.14 75.78 212.94 75.51 213.77 C75.15 214.88 75.15 214.88 74.78 216.01 C74 218 74 218 72 221 C69.1 221.32 66.42 221.44 63.52 221.43 C62.67 221.44 61.83 221.44 60.96 221.45 C59.16 221.46 57.37 221.45 55.57 221.45 C52.84 221.44 50.11 221.47 47.38 221.5 C45.64 221.5 43.89 221.5 42.14 221.5 C41.33 221.51 40.52 221.52 39.69 221.53 C32.5 221.44 28.55 219.36 23.21 214.42 C20.02 210.24 19.5 205.36 18.68 200.29 C18.5 199.24 18.32 198.19 18.13 197.11 C17.55 193.77 16.99 190.41 16.44 187.06 C16.06 184.88 15.69 182.69 15.31 180.5 C14.55 176.14 13.81 171.78 13.08 167.41 C10.22 150.38 7.18 133.38 4 116.41 C2.05 106.02 0.27 95.63 -1.35 85.19 C-2.07 80.55 -2.85 75.93 -3.69 71.31 C-4.12 68.88 -4.56 66.44 -5 64 C-7.62 76.05 -9.45 88.18 -11.24 100.38 C-13.83 117.95 -16.52 135.49 -19.5 153 C-22.83 172.58 -25.8 192.21 -28.73 211.86 C-30.43 223.25 -32.17 234.63 -34 246 C-34.12 246.75 -34.24 247.51 -34.36 248.28 C-35.08 252.75 -35.81 257.22 -36.57 261.69 C-36.82 263.17 -37.06 264.65 -37.3 266.14 C-37.65 268.34 -38.03 270.54 -38.4 272.74 C-38.61 274.02 -38.82 275.3 -39.04 276.61 C-40.08 280.29 -41.37 282.26 -44 285 C-47.58 286.79 -51.1 286.53 -55 286 C-58.5 284.73 -60.69 282.91 -63 280 C-65.22 274.35 -66.47 268.55 -67.75 262.62 C-68.11 261.05 -68.47 259.48 -68.84 257.91 C-69.57 254.78 -70.28 251.64 -70.98 248.51 C-72.35 242.41 -73.88 236.36 -75.42 230.3 C-76.08 227.7 -76.72 225.11 -77.37 222.51 C-78.64 217.42 -79.92 212.34 -81.21 207.26 C-81.74 205.16 -82.27 203.06 -82.79 200.96 C-83.56 197.87 -84.34 194.78 -85.12 191.7 C-85.47 190.31 -85.47 190.31 -85.82 188.89 C-87.99 178.73 -87.99 178.73 -93 170 C-93.73 172.29 -94.46 174.57 -95.18 176.86 C-95.82 178.84 -96.45 180.83 -97.08 182.81 C-98.64 187.69 -100.18 192.58 -101.7 197.48 C-101.96 198.33 -102.22 199.18 -102.49 200.05 C-102.98 201.64 -103.47 203.24 -103.96 204.83 C-107.33 215.7 -107.33 215.7 -111.99 219.33 C-116.86 221.77 -121.83 221.68 -127.19 221.75 C-128.34 221.78 -129.5 221.8 -130.69 221.83 C-135.12 221.92 -139.56 221.96 -144 222 C-145 222.01 -146 222.02 -147.03 222.03 C-153.94 222.1 -160.85 222.15 -167.76 222.17 C-170.12 222.18 -172.48 222.19 -174.84 222.21 C-178.2 222.23 -181.56 222.23 -184.93 222.23 C-185.94 222.24 -186.95 222.24 -187.99 222.25 C-194.81 222.23 -200.48 222.14 -205.88 217.56 C-208.51 214.38 -209.03 212.82 -208.88 208.69 C-207.8 204.18 -206.42 202.12 -203 199 C-196.22 197.41 -189.14 197.89 -182.22 197.94 C-180.88 197.94 -179.54 197.95 -178.2 197.95 C-173.25 197.96 -168.3 197.99 -163.35 198.01 C-159.16 198.03 -154.97 198.05 -150.77 198.06 C-148.82 198.06 -146.87 198.07 -144.91 198.09 C-139.17 198.1 -133.65 198.06 -128 197 C-127.66 195.9 -127.31 194.8 -126.96 193.67 C-125.68 189.55 -124.39 185.43 -123.09 181.31 C-122.54 179.54 -121.98 177.76 -121.43 175.99 C-111.47 144.03 -111.47 144.03 -100.77 137.67 C-95.23 135.51 -89.73 135.59 -84 137 C-75.11 141.27 -71.02 150.11 -67.71 158.94 C-64.97 166.86 -62.94 175.04 -60.75 183.12 C-59.94 186.09 -59.13 189.06 -58.31 192.02 C-57.81 193.86 -57.31 195.69 -56.81 197.53 C-56.59 198.35 -56.37 199.17 -56.14 200.02 C-55.94 200.74 -55.74 201.46 -55.54 202.21 C-55.03 204.08 -55.03 204.08 -54 206 C-51.75 195.75 -49.68 185.58 -48.3 175.17 C-45.97 158.26 -43.09 141.42 -40.15 124.6 C-38.59 115.71 -37.12 106.8 -35.71 97.88 C-33.96 86.83 -32.16 75.78 -30.33 64.73 C-30.07 63.19 -29.82 61.64 -29.56 60.09 C-28.09 51.12 -26.48 42.2 -24.66 33.3 C-23.71 28.53 -22.92 23.73 -22.18 18.93 C-21.22 13.1 -19.95 7.85 -15.56 3.69 C-10.26 0.19 -6.35 -0.85 0 0 Z " fill="#F9FBFB" transform="translate(216,427)"/>
<path d="M0 0 C4.13 3 5.95 6.1 6.9 11.01 C7.07 14.48 6.05 16.26 4 19 C-1.4 22.63 -6.42 24.04 -12.75 25.31 C-14.72 25.74 -16.68 26.16 -18.65 26.59 C-19.68 26.82 -20.72 27.04 -21.78 27.28 C-39.16 31.18 -56.16 36.09 -72.97 41.95 C-76.07 43.02 -79.18 44.06 -82.29 45.09 C-137.63 63.51 -191.31 91.69 -237 128 C-238.16 128.89 -239.31 129.78 -240.47 130.67 C-247.22 135.86 -253.62 141.24 -259.79 147.1 C-262.42 149.55 -265.2 151.76 -268 153.99 C-274.4 159.19 -280.19 164.92 -285.98 170.78 C-287.76 172.57 -289.54 174.35 -291.32 176.14 C-297.09 181.93 -302.71 187.77 -308 194 C-309.45 195.61 -310.91 197.21 -312.38 198.81 C-317.11 204.06 -321.57 209.5 -326 215 C-326.93 216.13 -327.85 217.27 -328.78 218.4 C-351.6 246.44 -370.98 276.98 -387.81 308.94 C-388.27 309.8 -388.72 310.67 -389.2 311.56 C-392.02 316.95 -394.57 322.42 -397 328 C-397.75 329.61 -398.5 331.21 -399.25 332.81 C-402.07 338.98 -404.55 345.28 -407.05 351.58 C-408.91 356.29 -410.82 360.97 -412.81 365.62 C-414.56 369.79 -415.97 373.94 -417.2 378.29 C-418.14 381.48 -419.23 384.6 -420.31 387.75 C-424.95 401.43 -428.67 415.49 -431.62 429.63 C-432.73 434.72 -434.21 438.51 -438.25 441.88 C-442.02 443.42 -444.09 443.1 -448 442 C-452.41 439.76 -452.41 439.76 -454 437 C-455.15 428.13 -453.4 419.66 -451.12 411.12 C-450.67 409.35 -450.67 409.35 -450.2 407.53 C-446.4 393.17 -441.71 379.08 -437 365 C-436.44 363.31 -436.44 363.31 -435.88 361.59 C-435.53 360.52 -435.18 359.46 -434.82 358.37 C-434.51 357.44 -434.21 356.51 -433.9 355.55 C-432.79 352.4 -431.45 349.41 -430.05 346.39 C-428.82 343.59 -427.76 340.74 -426.69 337.88 C-424.1 331.07 -421.07 324.53 -417.93 317.97 C-417 316 -416.1 314.03 -415.2 312.04 C-403.51 286.45 -388.92 262.17 -373 239 C-372.45 238.19 -371.89 237.37 -371.32 236.54 C-369.58 234 -367.8 231.5 -366 229 C-365.53 228.34 -365.05 227.68 -364.56 227 C-356.13 215.3 -347.33 204 -338 193 C-337.47 192.37 -336.93 191.73 -336.38 191.08 C-321.68 173.7 -306.12 156.22 -288.71 141.5 C-286.94 139.95 -285.32 138.32 -283.69 136.62 C-280.06 132.94 -276.09 129.74 -272.06 126.5 C-269.95 124.78 -267.89 123.05 -265.85 121.25 C-257.01 113.48 -247.74 106.46 -238.2 99.59 C-236.29 98.21 -234.4 96.82 -232.52 95.42 C-203.88 74.38 -171.77 57.1 -139.25 42.88 C-135.55 41.26 -131.9 39.55 -128.25 37.81 C-122.87 35.31 -117.4 33.27 -111.78 31.37 C-108.6 30.27 -105.53 28.96 -102.43 27.64 C-95.77 24.84 -88.99 22.55 -82.12 20.31 C-80.35 19.73 -80.35 19.73 -78.54 19.13 C-76.35 18.41 -74.16 17.69 -71.97 16.97 C-69.96 16.32 -67.96 15.65 -65.97 14.96 C-63.14 14.05 -60.33 13.29 -57.45 12.59 C-53.14 11.53 -48.84 10.45 -44.55 9.32 C-23.75 3.85 -23.75 3.85 -13.69 1.56 C-12.98 1.4 -12.28 1.24 -11.56 1.07 C-7.64 0.2 -4 -0.33 0 0 Z " fill="#F9FBFB" transform="translate(536,88)"/>
<path d="M0 0 C0.13 1.68 0.13 1.68 0.27 3.4 C2.14 26.3 4.43 48.65 10 71 C10.28 72.13 10.55 73.26 10.84 74.42 C14.26 88.15 18.35 101.51 23.21 114.79 C24.2 117.56 25.11 120.36 26.01 123.16 C27.9 129.02 30.06 134.59 32.7 140.16 C34.17 143.38 35.46 146.64 36.75 149.94 C46.04 173.52 57.25 197.14 70.66 218.67 C72 221 72 221 72 223 C66.59 227 66.59 227 64 227 C63.67 227.99 63.34 228.98 63 230 C62.34 230 61.68 230 61 230 C60.58 230.85 60.58 230.85 60.16 231.72 C58.6 234.78 56.86 237.72 55.12 240.68 C52.35 246.4 52.76 252.69 52.57 258.92 C52 262 52 262 50.08 263.36 C49.39 263.57 48.71 263.78 48 264 C47.34 264.33 46.68 264.66 46 265 C36.12 265.95 27.96 264.35 20.06 258.19 C15.67 253.99 14.12 250.44 13.83 244.44 C13.81 240.95 13.87 237.48 14 234 C13.34 234 12.68 234 12 234 C10.67 232.61 10.67 232.61 9.19 230.75 C6.71 227.73 4.06 225.43 1 223 C1 222.34 1 221.68 1 221 C0.17 220.72 0.17 220.72 -0.67 220.43 C-4.06 218.35 -6.04 215.32 -8.31 212.12 C-8.8 211.45 -9.28 210.77 -9.78 210.07 C-34.8 174.72 -39.92 127.04 -33 85 C-30.52 70.58 -27.18 56.68 -22 43 C-21.64 42.03 -21.27 41.07 -20.9 40.07 C-5.73 0 -5.73 0 0 0 Z " fill="#000100" transform="translate(660,799)"/>
<path d="M0 0 C4.34 -0.2 6.2 -0.2 9.75 2.52 C13.29 7.23 14.07 10.11 14.14 16.06 C14.15 16.74 14.16 17.41 14.17 18.1 C14.2 20.32 14.21 22.54 14.23 24.76 C14.25 26.3 14.27 27.84 14.29 29.38 C14.34 33.43 14.38 37.48 14.42 41.53 C14.46 45.67 14.51 49.81 14.56 53.94 C14.66 62.05 14.74 70.16 14.82 78.27 C47.92 76.33 47.92 76.33 80.82 72.27 C81.68 72.14 82.55 72 83.44 71.86 C110.71 67.58 137.52 61.66 163.82 53.27 C165.17 52.85 166.51 52.42 167.86 51.99 C187.99 45.68 187.99 45.68 207.73 38.27 C208.57 37.92 209.42 37.57 210.29 37.21 C212.02 36.5 213.75 35.78 215.48 35.06 C226.98 30.37 226.98 30.37 232.49 32.13 C233.36 32.57 234.23 33.01 235.13 33.46 C247.7 39.09 261.29 40.68 274.9 41.88 C277.73 42.16 280.11 42.54 282.82 43.27 C257.71 56.2 232.06 68.49 205.34 77.69 C202.19 78.78 199.06 79.92 195.95 81.11 C171.49 90.35 146.42 97.06 120.82 102.27 C119.91 102.46 119 102.65 118.06 102.85 C96.71 107.27 75.16 110.15 53.44 111.96 C52.72 112.02 52 112.08 51.26 112.15 C38.79 113.18 26.31 113.76 13.82 114.27 C13.82 114.85 13.83 115.42 13.84 116.02 C13.9 122.02 13.95 128.02 13.98 134.02 C14 136.26 14.02 138.5 14.04 140.74 C14.08 143.96 14.1 147.18 14.11 150.41 C14.12 151.4 14.14 152.4 14.16 153.43 C14.16 158.81 13.87 162.63 10.82 167.27 C7.96 170.07 5.9 170.7 1.94 170.71 C-3 170.57 -5.48 169.5 -9.18 166.27 C-10.58 163.48 -10.32 161.19 -10.33 158.07 C-10.33 157.42 -10.34 156.78 -10.34 156.12 C-10.35 153.95 -10.36 151.79 -10.36 149.62 C-10.37 148.07 -10.37 146.52 -10.38 144.98 C-10.4 140.76 -10.41 136.55 -10.42 132.33 C-10.42 129.7 -10.43 127.07 -10.43 124.43 C-10.45 116.2 -10.47 107.97 -10.48 99.74 C-10.49 90.23 -10.51 80.72 -10.55 71.21 C-10.58 63.86 -10.6 56.52 -10.6 49.17 C-10.6 44.78 -10.61 40.39 -10.64 36 C-10.66 31.87 -10.66 27.74 -10.65 23.61 C-10.65 22.1 -10.66 20.58 -10.67 19.07 C-10.69 17 -10.68 14.93 -10.67 12.86 C-10.67 11.7 -10.68 10.54 -10.68 9.35 C-10.08 5.62 -8.8 3.95 -6.18 1.27 C-4.07 0.43 -2.25 0.28 0 0 Z " fill="#F9FBFB" transform="translate(641.18359375,1090.7265625)"/>
<path d="M0 0 C4.86 5.36 6.32 10.41 5.99 17.59 C4.95 26.92 -1.17 34.17 -8.27 39.91 C-12.17 42.16 -16.15 44.1 -20.27 45.91 C-20.32 48.26 -20.36 50.62 -20.39 52.97 C-20.42 54.28 -20.44 55.59 -20.46 56.95 C-20.14 63.53 -18.57 68.87 -14.27 73.91 C-4.67 81.27 2.64 83.67 14.61 82.44 C22.97 81.02 27.87 76.71 32.73 69.91 C35.1 65.99 36.76 61.91 38.29 57.6 C39.59 54.28 40.09 53.03 42.73 50.91 C46.17 50.35 46.17 50.35 49.73 50.91 C52.93 54.11 53.98 56.86 54.17 61.29 C53.93 65.94 52.73 69.72 50.73 73.91 C50.24 74.97 50.24 74.97 49.73 76.06 C44.18 87.01 35.91 94.84 24.73 99.91 C23.74 99.91 22.75 99.91 21.73 99.91 C21.6 101.54 21.6 101.54 21.47 103.21 C20.3 116.1 17.5 126.98 8.73 136.91 C8.11 137.65 7.48 138.39 6.84 139.15 C0.01 146.66 -10.1 153.25 -20.48 154.09 C-38.19 154.54 -51.2 152.41 -64.63 139.67 C-71.85 131.81 -76.9 124 -78.1 113.32 C-78.77 106.1 -78.77 106.1 -81.96 99.83 C-84.01 98.63 -86.06 97.78 -88.27 96.91 C-89.7 95.93 -91.09 94.91 -92.46 93.85 C-94.56 92.23 -96.64 90.66 -98.83 89.16 C-106.87 81.74 -111.3 73.05 -111.77 62.22 C-111.66 57.96 -111.47 56.24 -109.21 52.54 C-106.27 50.91 -106.27 50.91 -102.84 50.77 C-99.27 51.91 -99.27 51.91 -98.03 53.59 C-96.94 55.89 -96.02 58.2 -95.14 60.6 C-91.93 68.99 -89.07 74.91 -80.71 79.22 C-79.78 79.71 -78.85 80.2 -77.89 80.71 C-70.28 84.19 -61.65 83.78 -53.8 81.14 C-47.89 78.26 -42.01 73.39 -39.14 67.35 C-37.36 60.74 -37.04 53.62 -38.27 46.91 C-40.77 43.8 -43.69 42.54 -47.27 40.91 C-53.95 36.56 -59.97 31.3 -63.71 24.16 C-64.85 17.56 -65.75 10.64 -62.33 4.6 C-56.81 -2.88 -49.18 -7.69 -40.14 -9.52 C-25.55 -11.54 -11.07 -10.41 0 0 Z " fill="#000100" transform="translate(518.26953125,420.08984375)"/>
<path d="M0 0 C0.66 0.73 0.66 0.73 1.33 1.48 C3.91 4.35 6.45 7.27 8.98 10.18 C17.93 20.42 27.4 30.18 37 39.81 C37.73 40.55 38.47 41.29 39.22 42.05 C43.27 46.09 47.42 49.95 51.75 53.68 C54.17 55.78 56.52 57.95 58.88 60.12 C64.28 65.05 69.85 69.69 75.56 74.25 C76.34 74.88 76.34 74.88 77.14 75.52 C86.65 83.19 96.5 90.31 106.56 97.25 C107.14 97.66 107.73 98.06 108.33 98.48 C130.64 113.96 154.25 127.2 178.56 139.25 C179.4 139.67 180.23 140.08 181.09 140.51 C203.62 151.64 227.35 161.23 251.46 168.33 C254.35 169.19 257.22 170.11 260.09 171.05 C273.66 175.43 287.58 178.51 301.56 181.25 C303.29 181.59 305.01 181.94 306.74 182.29 C307.59 182.45 308.43 182.62 309.31 182.8 C311.04 183.15 312.77 183.49 314.5 183.84 C315.34 184.01 316.18 184.17 317.05 184.35 C317.84 184.51 318.63 184.67 319.44 184.83 C321.13 185.17 322.83 185.45 324.53 185.72 C328.56 186.77 330.37 190.96 332.56 194.25 C333.14 198.64 332.82 200.77 330.69 204.69 C328.93 206.55 328 207.19 325.45 207.56 C319.11 207.43 313 206.77 306.75 205.69 C305.21 205.42 305.21 205.42 303.64 205.16 C211.59 188.75 113.97 143.55 45.55 78.93 C43.89 77.39 42.21 75.97 40.42 74.58 C31.53 67.6 23.69 59.64 15.74 51.63 C13.31 49.18 10.87 46.75 8.44 44.31 C6.87 42.74 5.3 41.16 3.73 39.59 C3.02 38.87 2.3 38.15 1.56 37.41 C-2.43 33.39 -6.25 29.27 -9.95 24.97 C-11.94 22.67 -14 20.43 -16.06 18.19 C-17.52 16.55 -18.98 14.9 -20.44 13.25 C-21 12.63 -21.57 12.01 -22.16 11.38 C-24.82 8.18 -25.78 5.76 -25.56 1.69 C-24.67 -3.11 -23.16 -5.58 -19.44 -8.75 C-10.79 -12.06 -5.51 -6.25 0 0 Z " fill="#F9FBFB" transform="translate(218.4375,986.75)"/>
<path d="M0 0 C9.04 6.49 16.19 16.6 18.39 27.56 C19.94 40.42 17.78 50.8 10.07 61.44 C2.73 70.25 -6.89 75.73 -18.37 76.82 C-32.34 77.35 -42.56 71.88 -52.71 62.65 C-57.54 57.65 -59.7 52.17 -61.61 45.56 C-61.81 44.91 -62 44.25 -62.2 43.57 C-64.35 33.2 -62.04 22.67 -56.92 13.54 C-44.15 -5.35 -20.08 -11.04 0 0 Z " fill="#F9FBFB" transform="translate(511.61328125,873.4375)"/>
<path d="M0 0 C0.78 -0.02 1.55 -0.04 2.36 -0.06 C8.83 -0.11 13.71 0.96 18.56 5.56 C20.5 8.89 20.73 10.45 20.12 14.25 C19.21 17 18.14 19.15 16.12 21.25 C13.4 22.43 11.1 22.8 8.12 23.25 C8.76 28.49 10.82 33.07 14.66 36.7 C19.79 40.59 25.54 43.72 32.12 43.19 C37.76 42.17 42.48 39.6 46.88 36 C49.12 34.25 49.12 34.25 53.12 34.25 C56.34 39.31 57.77 43.16 56.73 49.15 C54.96 55.3 50.33 59.78 45.12 63.25 C36.6 66.66 24.43 66.82 15.75 63.81 C10.8 61.51 7.09 57.9 3.25 54.08 C1.21 51.92 1.21 51.92 -1.88 52.25 C-3.24 53.63 -3.24 53.63 -4.5 55.44 C-8.98 60.95 -14.85 64.23 -21.88 65.25 C-34.6 66.05 -43.14 64.57 -52.88 56.25 C-53.68 55.57 -54.48 54.89 -55.31 54.19 C-58.54 50.19 -58.23 45.2 -57.88 40.25 C-56.69 37.38 -56.69 37.38 -54.88 35.25 C-52.55 34.41 -52.55 34.41 -49.88 34.25 C-47.55 35.61 -47.55 35.61 -45.19 37.56 C-39.46 41.8 -34.42 43.92 -27.23 42.86 C-22.02 41.51 -17.23 39.62 -13.88 35.25 C-11.66 31.34 -9.72 27.35 -7.88 23.25 C-8.93 23.02 -9.98 22.8 -11.06 22.56 C-15.11 21.37 -17.32 19.7 -19.88 16.25 C-20.82 13.52 -21.18 11.13 -20.88 8.25 C-18.6 4.5 -16.07 1.88 -11.74 0.64 C-7.82 0.11 -3.95 0.03 0 0 Z " fill="#F9FBFB" transform="translate(834.875,596.75)"/>
<path d="M0 0 C0.86 -0.05 1.73 -0.1 2.62 -0.15 C5.12 0.38 5.12 0.38 7.3 2.47 C9.33 5.7 10.37 8.58 11.44 12.25 C11.64 12.94 11.85 13.62 12.06 14.33 C12.76 16.67 13.44 19.02 14.12 21.38 C18.36 35.76 22.95 49.91 28.22 63.95 C29.01 66.08 29.79 68.22 30.54 70.36 C36.98 88.26 44.83 105.8 54 122.46 C59.18 131.9 59.18 131.9 59.06 137.44 C57.83 141.3 56.34 142.93 53.12 145.38 C49.84 146.41 47.57 146.89 44.26 145.71 C36.58 141.68 33.66 134.7 30.19 127.12 C27.76 121.86 25.33 116.65 22.46 111.6 C20.51 108.16 18.97 104.74 17.62 101 C16.17 96.97 14.55 93.08 12.74 89.19 C10.11 83.46 7.87 77.63 5.75 71.69 C5.36 70.61 4.98 69.54 4.58 68.43 C0.94 58.11 -2.17 47.67 -5.1 37.14 C-5.84 34.49 -6.62 31.86 -7.42 29.22 C-12.32 12.79 -12.32 12.79 -10.88 6.38 C-7.87 1.47 -5.6 0.22 0 0 Z " fill="#FAFCFC" transform="translate(92.875,744.625)"/>
<path d="M0 0 C1.88 2.33 3.16 4.36 4.38 7.12 C5.76 10.19 5.76 10.19 8.69 11.38 C9.83 11.68 9.83 11.68 11 12 C11.65 10.73 12.29 9.46 12.94 8.19 C13.3 7.48 13.66 6.77 14.03 6.04 C15.11 3.88 15.11 3.88 16 1 C20.48 1.61 24.11 3.41 28.06 5.5 C31.67 7.39 35.04 9.01 39 10 C40.96 13.92 40.57 18.25 39.25 22.32 C35.35 31.34 30.39 38 21.75 42.81 C13.04 45.57 4.97 45.86 -3.32 41.89 C-11.29 37.64 -17.12 33.27 -20.27 24.46 C-20.75 22.65 -20.75 22.65 -21.25 20.81 C-21.59 19.6 -21.92 18.39 -22.27 17.14 C-23 14 -23 14 -23 11 C-21.93 10.62 -20.85 10.25 -19.75 9.86 C-9.22 6.16 -9.22 6.16 0 0 Z " fill="#F9FBFB" transform="translate(480,511)"/>
<path d="M0 0 C6 5.13 10.02 10.71 10.94 18.62 C11.13 22.91 10.91 26.09 9 30 C8.69 30.64 8.38 31.27 8.07 31.93 C4.75 38.02 -0.34 42.53 -7.05 44.64 C-14.84 46.06 -21.82 44.74 -28.43 40.41 C-34.44 35.6 -37.54 30.57 -39 23 C-39.53 16.12 -36.98 10.51 -33 5 C-24.63 -4.27 -10.74 -6.35 0 0 Z " fill="#F9FBFB" transform="translate(796,534)"/>
<path d="M0 0 C7.53 5.74 12.17 12.74 14.04 22.06 C14.59 29.26 10.63 35.58 6.19 40.94 C0.05 45.87 -5.61 47.51 -13.38 47 C-20.61 45.46 -27.23 42.22 -31.73 36.18 C-35.08 30.22 -36.11 23.92 -34.85 17.2 C-32.66 9.92 -28.76 5.12 -22.38 1 C-15.31 -1.93 -7.33 -2.17 0 0 Z " fill="#F9FBFB" transform="translate(898.375,532)"/>
<path d="M0 0 C5.77 3.74 8.94 8.42 11 15 C12.02 22.36 12.18 29.2 7.56 35.32 C3.17 40.05 -1.3 44.53 -7.92 45.37 C-16.62 45.55 -22.41 44.34 -28.81 38.29 C-34.23 32.33 -35.48 27.05 -35.31 19.07 C-34.57 11.72 -31.24 6.38 -25.85 1.44 C-17.94 -4.73 -8.61 -4.49 0 0 Z " fill="#000100" transform="translate(437,339)"/>
<path d="M0 0 C7.04 4.06 11.47 10.73 13.75 18.44 C15.12 25.71 13.15 30.85 9.39 37.09 C6 41.94 1.49 44.94 -4.25 46.44 C-11.55 47.34 -17.13 46.55 -23.25 42.44 C-23.82 42.06 -24.38 41.69 -24.97 41.3 C-28.92 38.38 -31.29 35.22 -32.25 30.44 C-32.98 22.31 -33.63 14.08 -28.25 7.44 C-20.8 -0.6 -10.48 -4.65 0 0 Z " fill="#010201" transform="translate(562.25,337.5625)"/>
<path d="M0 0 C0.33 0 0.66 0 1 0 C1 1.98 1 3.96 1 6 C1.33 6 1.66 6 2 6 C2.01 6.8 2.03 7.6 2.04 8.42 C2.48 18.51 4.61 27.18 11.19 35.06 C19.35 44.87 25.43 57.55 28 70 C28.53 71.9 29.07 73.79 29.62 75.69 C36.64 99.95 31.03 128.34 19.39 150.1 C17.78 152.92 17.78 152.92 18 156 C17.04 157.04 16.03 158.03 15 159 C13.97 160.46 12.97 161.94 12 163.44 C7.94 169.68 7.94 169.68 6 172 C5.34 172 4.68 172 4 172 C3.74 172.59 3.48 173.19 3.21 173.8 C1.05 177.72 -2.59 180.17 -6 183 C-6.81 183.71 -7.61 184.41 -8.45 185.14 C-19.31 194.43 -36.09 207 -51 207 C-51.33 206.01 -51.66 205.02 -52 204 C-51.01 203.67 -50.02 203.34 -49 203 C-49 202.34 -49 201.68 -49 201 C-47.42 200.6 -47.42 200.6 -45.81 200.19 C-42.39 199.12 -40.03 197.83 -37 196 C-36.13 195.84 -35.27 195.67 -34.38 195.5 C-31.98 195.22 -31.98 195.22 -30.68 193.67 C-28.59 191.59 -26.33 190.27 -23.81 188.75 C-16.02 183.87 -9.57 177.91 -3.31 171.19 C-2 170 -2 170 0 170 C0.06 169.44 0.12 168.89 0.19 168.31 C1.33 165.07 3.59 163.41 6 161 C7.32 158.33 7.32 158.33 8 156 C8.66 156 9.32 156 10 156 C10.27 155.28 10.54 154.56 10.81 153.81 C12 151 12 151 13.39 148.81 C15.34 145.41 16.66 141.88 17.94 138.19 C18.2 137.44 18.45 136.7 18.72 135.94 C28.3 107.83 28.15 80.25 15.12 53.18 C12.62 48.13 10.11 43.33 6.5 39 C0.54 31.85 -3.99 24.22 -3.25 14.73 C-3.16 14.16 -3.08 13.59 -3 13 C-2.34 13 -1.68 13 -1 13 C-1.1 12.4 -1.19 11.79 -1.29 11.17 C-1.4 10.37 -1.51 9.57 -1.62 8.75 C-1.74 7.96 -1.86 7.17 -1.98 6.36 C-2 3.68 -1.37 2.27 0 0 Z " fill="#505050" transform="translate(946,474)"/>
<path d="M0 0 C-0.67 8.1 -0.67 8.1 -4 12 C-4 12.99 -4 13.98 -4 15 C-4.63 17.74 -5.3 20.46 -6 23.19 C-6.19 23.94 -6.38 24.69 -6.58 25.46 C-7.05 27.31 -7.52 29.15 -8 31 C-8.99 31 -9.98 31 -11 31 C-10.23 31.81 -10.23 31.81 -9.45 32.64 C-7.51 35.8 -8.04 37.23 -8.81 40.81 C-11.07 53.37 -10.04 65.48 -8 78 C-7.87 78.9 -7.73 79.81 -7.6 80.74 C-4.89 96.87 4.84 115.37 16.73 126.64 C18 128 18 128 18 130 C18.56 130.23 19.11 130.45 19.69 130.69 C22.64 132.36 24.6 134.6 27 137 C29.26 138.78 31.62 140.38 34 142 C34.61 142.44 35.22 142.88 35.85 143.33 C43.45 148.66 51.77 152.75 60 157 C60 157.99 60 158.98 60 160 C67.02 162.24 73.59 163.39 80.96 163.69 C84.22 164.02 86.91 164.94 90 166 C91.78 166.27 93.58 166.48 95.38 166.62 C96.25 166.7 97.12 166.77 98.02 166.85 C99 166.93 99 166.93 100 167 C100 167.33 100 167.66 100 168 C101.65 168.33 103.3 168.66 105 169 C105 169.33 105 169.66 105 170 C100.05 170 95.1 170 90 170 C90 169.34 90 168.68 90 168 C87.36 167.67 84.72 167.34 82 167 C82 167.33 82 167.66 82 168 C60.25 166.13 40.06 155.11 23 142 C21.72 141.02 21.72 141.02 20.42 140.02 C6.41 128.33 -7.43 109.19 -11 91 C-11 89.07 -11 87.14 -10.97 85.2 C-11.03 81.15 -11.73 77.18 -12.38 73.19 C-12.5 72.34 -12.63 71.5 -12.76 70.63 C-12.89 69.82 -13.02 69 -13.15 68.17 C-13.26 67.44 -13.38 66.71 -13.5 65.96 C-13.96 63.7 -13.96 63.7 -16 61 C-16.44 57.7 -16.33 54.38 -16.31 51.06 C-16.31 50.12 -16.31 49.17 -16.31 48.2 C-16.2 41.09 -15.15 34.78 -13 28 C-12.67 26.33 -12.33 24.67 -12 23 C-11.57 21.6 -11.11 20.2 -10.62 18.81 C-9.47 15.46 -8.49 12.11 -7.56 8.69 C-6.37 4.65 -4.91 0 0 0 Z " fill="#4F4F4F" transform="translate(708,517)"/>
<path d="M0 0 C0.99 0.33 1.98 0.66 3 1 C8.74 27.97 6.53 54.53 -6.61 79.1 C-8.22 81.92 -8.22 81.92 -8 85 C-8.96 86.04 -9.97 87.03 -11 88 C-12.03 89.46 -13.03 90.94 -14 92.44 C-18.06 98.68 -18.06 98.68 -20 101 C-20.66 101 -21.32 101 -22 101 C-22.26 101.59 -22.52 102.19 -22.79 102.8 C-24.95 106.72 -28.59 109.17 -32 112 C-32.81 112.71 -33.61 113.41 -34.45 114.14 C-45.31 123.43 -62.09 136 -77 136 C-77.33 135.01 -77.66 134.02 -78 133 C-77.01 132.67 -76.02 132.34 -75 132 C-75 131.34 -75 130.68 -75 130 C-73.42 129.6 -73.42 129.6 -71.81 129.19 C-68.11 128.2 -68.11 128.2 -65.5 126.5 C-61.78 124.27 -57.84 123.25 -53.57 122.66 C-50.48 121.86 -48.86 120.56 -46.44 118.5 C-43.64 116.13 -41.66 114.6 -38 114 C-38 113.34 -38 112.68 -38 112 C-36.43 110.45 -36.43 110.45 -34.31 108.69 C-31.8 106.56 -29.39 104.44 -27.12 102.06 C-25 100 -25 100 -23 100 C-22.77 99.28 -22.55 98.56 -22.31 97.81 C-21 95 -21 95 -18.68 92.83 C-15.48 89.45 -13.77 86.05 -11.81 81.88 C-11.13 80.45 -10.45 79.04 -9.77 77.62 C-9.48 76.99 -9.18 76.37 -8.88 75.73 C-8 74 -8 74 -6 71 C-5.47 69.5 -5 67.97 -4.56 66.44 C-3.07 61.2 -3.07 61.2 -2.21 58.61 C3.72 40.49 3.96 18.6 0 0 Z " fill="#ABAEAD" transform="translate(972,545)"/>
<path d="M0 0 C2.83 0.14 2.83 0.14 4.76 -0.52 C7.87 -1.19 10.7 -0.92 13.88 -0.69 C15.67 -0.57 15.67 -0.57 17.49 -0.45 C20.92 -0.01 23.73 0.91 27 2 C28.94 2.23 30.87 2.45 32.81 2.66 C36.94 3.3 40.85 4.65 44.81 5.94 C45.66 6.2 46.5 6.47 47.37 6.74 C50.99 7.9 53.81 8.87 57 11 C59.11 11.63 59.11 11.63 61 12 C60.67 12.66 60.34 13.32 60 14 C56.79 13.5 53.84 12.64 50.79 11.55 C50.02 11.28 49.25 11.01 48.46 10.73 C46.86 10.16 45.27 9.58 43.68 9 C38.94 7.34 36 6.87 31 8 C28.34 7.7 28.34 7.7 25.5 7.12 C10.69 4.67 -4.05 4.61 -18.94 6.33 C-20.24 6.47 -20.24 6.47 -21.57 6.62 C-22.71 6.77 -22.71 6.77 -23.88 6.91 C-26.13 7.01 -27.83 6.56 -30 6 C-32.94 6.53 -32.94 6.53 -36 7.44 C-39.61 8.44 -42.22 9 -46 9 C-46 8.34 -46 7.68 -46 7 C-11.49 -3.83 -11.49 -3.83 0 0 Z " fill="#4F4F4F" transform="translate(831,455)"/>
<path d="M0 0 C2.45 2.45 2.98 4.48 4.12 7.75 C8.24 18.66 13.9 28.24 21.53 37.11 C23 39 23 39 23 41 C23.57 41.25 24.13 41.49 24.71 41.75 C27.39 43.22 29.33 44.98 31.56 47.06 C32.45 47.87 33.34 48.67 34.25 49.5 C36.01 51.1 37.76 52.7 39.5 54.31 C47.22 61.09 55.62 65.06 65 69 C65.7 69.3 66.4 69.6 67.12 69.91 C75.07 73.3 82.37 75.66 91.13 75.8 C94.36 76.03 96.95 76.95 100 78 C101.78 78.27 103.58 78.48 105.38 78.62 C106.25 78.7 107.12 78.77 108.02 78.85 C109 78.93 109 78.93 110 79 C110 79.33 110 79.66 110 80 C111.65 80.33 113.3 80.66 115 81 C115 81.33 115 81.66 115 82 C110.05 82 105.1 82 100 82 C100 81.34 100 80.68 100 80 C97.36 79.67 94.72 79.34 92 79 C92 79.33 92 79.66 92 80 C70.25 78.13 50.06 67.11 33 54 C32.15 53.35 31.3 52.69 30.42 52.02 C16.42 40.35 2.56 21.18 -1 3 C-0.67 2.01 -0.34 1.02 0 0 Z " fill="#A5A8A7" transform="translate(698,605)"/>
<path d="M0 0 C-0.67 8.1 -0.67 8.1 -4 12 C-4 12.99 -4 13.98 -4 15 C-4.63 17.74 -5.3 20.46 -6 23.19 C-6.19 23.94 -6.38 24.69 -6.58 25.46 C-7.05 27.31 -7.52 29.15 -8 31 C-8.99 31 -9.98 31 -11 31 C-10.67 31.99 -10.34 32.98 -10 34 C-10.64 35.68 -11.31 37.34 -12 39 C-13.2 46.26 -13.13 53.66 -13 61 C-13.99 61 -14.98 61 -16 61 C-16.31 49.55 -16.5 39.02 -13 28 C-12.67 26.33 -12.33 24.67 -12 23 C-11.57 21.6 -11.11 20.2 -10.62 18.81 C-9.47 15.46 -8.49 12.11 -7.56 8.69 C-6.37 4.65 -4.91 0 0 0 Z " fill="#5A5B5B" transform="translate(708,517)"/>
<path d="M0 0 C0.33 0 0.66 0 1 0 C1.51 3.35 2.01 6.71 2.5 10.06 C2.64 11.01 2.79 11.95 2.93 12.92 C3.68 18.01 4.17 22.86 4 28 C3.34 27.67 2.68 27.34 2 27 C2.33 26.01 2.66 25.02 3 24 C2.34 24 1.68 24 1 24 C1.33 22.35 1.66 20.7 2 19 C1.01 19 0.02 19 -1 19 C-1 19.66 -1 20.32 -1 21 C-1.66 21.66 -2.32 22.32 -3 23 C-3.38 25.33 -3.7 27.66 -4 30 C-4.43 32.12 -4.91 34.22 -5.4 36.33 C-5.86 38.39 -6.3 40.45 -6.73 42.51 C-7.11 44.36 -7.11 44.36 -7.5 46.25 C-7.74 47.41 -7.97 48.57 -8.22 49.77 C-8.92 52.67 -9.81 55.27 -11 58 C-13.09 55.16 -12.98 53.84 -12.54 50.26 C-12.22 48.76 -11.89 47.25 -11.55 45.75 C-11.38 44.95 -11.2 44.14 -11.03 43.31 C-10.47 40.72 -9.89 38.14 -9.31 35.56 C-8.94 33.86 -8.57 32.16 -8.21 30.46 C-7.32 26.37 -6.41 22.3 -5.5 18.23 C-5.03 16.15 -4.58 14.07 -4.13 11.98 C-3.87 10.82 -3.62 9.66 -3.36 8.46 C-3.14 7.47 -2.92 6.47 -2.7 5.45 C-2 3 -2 3 0 0 Z " fill="#505050" transform="translate(383,307)"/>
<path d="M0 0 C0.33 0 0.66 0 1 0 C1 1.98 1 3.96 1 6 C1.33 6 1.66 6 2 6 C2.01 6.8 2.03 7.6 2.04 8.42 C2.48 18.51 4.61 27.18 11.19 35.06 C19.18 44.67 25.84 57.67 28 70 C26.51 69.5 26.51 69.5 25 69 C23.94 66.64 23.94 66.64 23 63.69 C21.77 59.86 20.49 57.14 18 54 C17.59 52.99 17.17 51.98 16.75 50.94 C14.55 45.56 11.18 40.84 8 36 C6.72 34.04 5.45 32.09 4.19 30.12 C3.62 29.26 3.06 28.4 2.48 27.51 C-1.71 20.4 -2.89 12.17 -2 4 C-0.99 1.73 -0.99 1.73 0 0 Z " fill="#A1A4A3" transform="translate(946,474)"/>
<path d="M0 0 C0.66 0.33 1.32 0.66 2 1 C0.63 5.46 -1.12 9.45 -3.31 13.56 C-4.17 15.2 -4.17 15.2 -5.05 16.88 C-7.05 20.08 -9.28 22.4 -12 25 C-12.33 25.66 -12.66 26.32 -13 27 C-13.66 27 -14.32 27 -15 27 C-15.25 27.58 -15.5 28.17 -15.75 28.77 C-17.17 31.31 -18.73 32.79 -20.94 34.69 C-21.63 35.29 -22.32 35.89 -23.03 36.51 C-25 38 -25 38 -28 39 C-28 39.66 -28 40.32 -28 41 C-29.72 42.21 -31.51 43.35 -33.31 44.44 C-37.25 46.77 -37.25 46.77 -40.69 49.74 C-41.34 50.36 -41.34 50.36 -42 51 C-44.69 50.69 -44.69 50.69 -47 50 C-44.6 48.17 -42.17 46.41 -39.69 44.7 C-39.09 44.28 -38.49 43.86 -37.87 43.43 C-36.63 42.56 -35.38 41.7 -34.13 40.85 C-30.42 38.24 -27.75 35.66 -25 32 C-23.83 30.86 -22.62 29.75 -21.38 28.69 C-20.49 27.92 -20.49 27.92 -19.59 27.14 C-18 26 -18 26 -16 26 C-15.91 25.16 -15.91 25.16 -15.81 24.31 C-14.67 21.07 -12.41 19.41 -10 17 C-8.68 14.33 -8.68 14.33 -8 12 C-7.34 12 -6.68 12 -6 12 C-5.75 11.32 -5.5 10.64 -5.25 9.94 C-3.76 6.43 -1.93 3.28 0 0 Z " fill="#5C5C5C" transform="translate(962,618)"/>
<path d="M0 0 C0.99 0.33 1.98 0.66 3 1 C6.97 19.68 6.49 36.27 3 55 C2.01 54.67 1.02 54.34 0 54 C0.14 53 0.29 52.01 0.44 50.98 C2.71 34.3 3.53 16.56 0 0 Z " fill="#A6A9A8" transform="translate(972,545)"/>
<path d="M0 0 C0.99 0.33 1.98 0.66 3 1 C3.99 0.67 4.98 0.34 6 0 C8.27 0.04 10.55 0.15 12.81 0.31 C14.02 0.39 15.22 0.47 16.46 0.55 C19.9 0.99 22.72 1.9 26 3 C27.94 3.23 29.87 3.45 31.81 3.66 C35.94 4.3 39.85 5.65 43.81 6.94 C44.66 7.2 45.5 7.47 46.37 7.74 C49.99 8.9 52.81 9.87 56 12 C58.11 12.63 58.11 12.63 60 13 C59.67 13.66 59.34 14.32 59 15 C53.32 14.1 48 12 42.59 10.08 C38.62 8.72 35.27 7.6 31 8 C31 7.34 31 6.68 31 6 C15.65 4.51 15.65 4.51 0 3 C0 2.01 0 1.02 0 0 Z " fill="#A5A8A7" transform="translate(832,454)"/>
<path d="M0 0 C0 0.66 0 1.32 0 2 C-1.32 2 -2.64 2 -4 2 C-4.33 2.66 -4.66 3.32 -5 4 C-5.66 4 -6.32 4 -7 4 C-7.66 4.66 -8.32 5.32 -9 6 C-10.32 6.37 -11.66 6.7 -13 7 C-16.25 8.22 -19.43 9.59 -22.62 10.94 C-23.5 11.3 -24.37 11.66 -25.27 12.03 C-26.1 12.38 -26.93 12.73 -27.79 13.09 C-28.55 13.41 -29.31 13.73 -30.09 14.05 C-32.17 14.96 -32.17 14.96 -34 17 C-35.65 17.71 -37.32 18.38 -39 19 C-40.16 15.52 -39.71 13.54 -39 10 C-37.35 10.99 -35.7 11.98 -34 13 C-34 12.34 -34 11.68 -34 11 C-33.14 10.72 -32.27 10.44 -31.38 10.16 C-28.17 9.06 -25.06 7.82 -21.94 6.5 C-18.3 4.97 -14.66 3.46 -11 2 C-9.94 1.56 -9.94 1.56 -8.87 1.11 C-8.21 0.85 -7.55 0.58 -6.88 0.31 C-6.21 0.04 -5.55 -0.23 -4.87 -0.51 C-3 -1 -3 -1 0 0 Z " fill="#A1A4A3" transform="translate(784,464)"/>
<path d="M0 0 C0.37 0.5 0.75 1 1.13 1.51 C0.05 1.53 0.05 1.53 -1.05 1.55 C-11.68 2.03 -21.82 4.17 -32.21 6.36 C-36.42 7.24 -40.6 7.98 -44.87 8.51 C-44.87 7.85 -44.87 7.19 -44.87 6.51 C-34.93 3.39 -25.26 0.66 -14.87 -0.49 C-13.68 -0.63 -12.5 -0.78 -11.28 -0.93 C-2.34 -1.87 -2.34 -1.87 0 0 Z " fill="#9FA2A1" transform="translate(829.8671875,455.48828125)"/>
<path d="M0 0 C0.99 0.33 1.98 0.66 3 1 C3.84 3.19 3.84 3.19 4.5 6 C5.39 9.66 6.39 13.11 7.75 16.62 C9.4 21.36 8.86 25.1 8 30 C7.34 30 6.68 30 6 30 C3.78 26.67 3.95 25.18 4.05 21.32 C3.94 16.45 3.13 11.25 0.94 6.88 C-0.25 4.49 -0.15 2.63 0 0 Z " fill="#535353" transform="translate(756,1005)"/>
<path d="M0 0 C1.92 3.17 2.17 4.85 1.31 8.44 C1.01 9.75 1.01 9.75 0.71 11.09 C0.47 12.05 0.24 13.01 0 14 C-0.5 16.17 -1 18.33 -1.5 20.5 C-1.76 21.59 -2.01 22.68 -2.28 23.8 C-3.13 27.57 -3.83 31.36 -4.47 35.17 C-4.65 35.78 -4.82 36.38 -5 37 C-5.99 37.5 -5.99 37.5 -7 38 C-8.53 34.02 -7.49 30.44 -6.6 26.43 C-6.45 25.7 -6.29 24.98 -6.13 24.23 C-5.81 22.7 -5.48 21.18 -5.14 19.65 C-4.62 17.31 -4.12 14.97 -3.62 12.62 C-3.31 11.14 -2.99 9.66 -2.66 8.18 C-2.51 7.47 -2.36 6.77 -2.21 6.04 C-1.12 1.12 -1.12 1.12 0 0 Z " fill="#373737" transform="translate(378,327)"/>
<path d="M0 0 C0.66 0 1.32 0 2 0 C3.07 4.59 2.74 6.73 1 11 C-0.2 18.26 -0.13 25.66 0 33 C-0.99 33 -1.98 33 -3 33 C-3.62 10.41 -3.62 10.41 0 0 Z " fill="#A4A7A6" transform="translate(695,545)"/>
<path d="M0 0 C0 0.66 0 1.32 0 2 C-1.91 3.01 -3.83 4.01 -5.75 5 C-6.82 5.56 -7.88 6.11 -8.98 6.69 C-12 8 -12 8 -16 8 C-16 8.66 -16 9.32 -16 10 C-17.32 10 -18.64 10 -20 10 C-20 10.66 -20 11.32 -20 12 C-21.98 12.99 -21.98 12.99 -24 14 C-23.75 10.62 -23.75 10.62 -23 7 C-20.94 5.56 -20.94 5.56 -19 5 C-18.67 5.66 -18.34 6.32 -18 7 C-17.17 6.4 -16.35 5.8 -15.5 5.19 C-10.62 1.94 -5.88 0 0 0 Z " fill="#4D4D4D" transform="translate(764,475)"/>
<path d="M0 0 C0.99 0.33 1.98 0.66 3 1 C0.83 3.5 -0.73 4.44 -4 5 C-4.02 5.6 -4.04 6.2 -4.06 6.81 C-5 9 -5 9 -8.31 10.75 C-12 12 -12 12 -16 12 C-16.33 11.01 -16.66 10.02 -17 9 C-16.01 8.67 -15.02 8.34 -14 8 C-14 7.34 -14 6.68 -14 6 C-12.95 5.73 -11.9 5.46 -10.81 5.19 C-7.41 4.13 -4.95 2.94 -2 1 C-1.34 0.67 -0.68 0.34 0 0 Z " fill="#9B9D9D" transform="translate(911,669)"/>
<path d="M0 0 C6.21 2.2 11.55 4.76 16.89 8.63 C19.18 10.12 21.45 11.07 24 12 C24 12.66 24 13.32 24 14 C19.06 13.39 15.15 11.21 10.81 8.94 C6.13 6.15 6.13 6.15 1 5 C0.67 5.66 0.34 6.32 0 7 C-0.66 6.67 -1.32 6.34 -2 6 C-1.34 4.02 -0.68 2.04 0 0 Z " fill="#505050" transform="translate(720,680)"/>
<path d="M0 0 C5.92 0.52 10.77 1.82 16.25 4.06 C20.31 5.71 23.53 7 28 7 C28.33 7.99 28.66 8.98 29 10 C24.28 11.55 21.09 10.17 16.75 8.25 C15.42 7.69 14.09 7.13 12.76 6.57 C12.12 6.3 11.48 6.03 10.82 5.75 C7.28 4.29 3.65 3.15 0 2 C0 1.34 0 0.68 0 0 Z " fill="#4F4F4F" transform="translate(864,461)"/>
<path d="M0 0 C0 0.66 0 1.32 0 2 C-1.24 2.34 -2.48 2.68 -3.76 3.02 C-5.4 3.47 -7.05 3.92 -8.69 4.38 C-9.5 4.6 -10.32 4.82 -11.16 5.05 C-15.21 6.16 -19.14 7.32 -23 9 C-23.33 7.68 -23.66 6.36 -24 5 C-22.68 5 -21.36 5 -20 5 C-19.67 4.01 -19.34 3.02 -19 2 C-18.03 1.88 -17.06 1.75 -16.06 1.62 C-12.31 1.11 -8.68 0.24 -5.02 -0.7 C-3 -1 -3 -1 0 0 Z " fill="#4B4B4B" transform="translate(804,461)"/>
<path d="M0 0 C-0.73 8.73 -0.73 8.73 -4 12 C-5.3 13.04 -6.63 14.05 -8 15 C-9.24 11.27 -8.62 10.49 -7 7 C-6.5 5.93 -6.01 4.86 -5.5 3.75 C-3.87 0.76 -3.38 0 0 0 Z " fill="#666766" transform="translate(708,517)"/>
<path d="M0 0 C2.28 2.28 2.38 3.08 2.85 6.18 C2.98 7 3.11 7.83 3.24 8.69 C3.37 9.55 3.49 10.42 3.62 11.31 C3.76 12.17 3.89 13.02 4.03 13.9 C4.65 17.96 5.19 21.88 5 26 C3 25 3 25 2.18 22.92 C-2.64 5.27 -2.64 5.27 0 0 Z " fill="#A5A8A7" transform="translate(693,579)"/>
<path d="M0 0 C0.66 0.33 1.32 0.66 2 1 C1.48 7.01 -0.05 12.7 -3 18 C-3.99 18.33 -4.98 18.66 -6 19 C-4.7 12.28 -2.7 6.28 0 0 Z " fill="#AEB1B0" transform="translate(972,599)"/>
<path d="M0 0 C5.1 2.49 10.05 5.22 15 8 C15 8.66 15 9.32 15 10 C16.32 10.33 17.64 10.66 19 11 C18.34 11.66 17.68 12.32 17 13 C14.17 12.06 12.31 11.33 10.25 9.12 C6.98 6.04 3.13 4.66 -1 3 C-0.67 2.01 -0.34 1.02 0 0 Z " fill="#A5A8A7" transform="translate(722,678)"/>
<path d="M0 0 C0.95 0.31 1.9 0.62 2.88 0.94 C7.51 2.28 12.21 2.63 17 3 C17 3.33 17 3.66 17 4 C19.48 4.5 19.48 4.5 22 5 C22 5.33 22 5.66 22 6 C17.05 6 12.1 6 7 6 C7 5.34 7 4.68 7 4 C4.69 3.67 2.38 3.34 0 3 C0 2.01 0 1.02 0 0 Z " fill="#949695" transform="translate(791,681)"/>
<path d="M0 0 C1.32 0.66 2.64 1.32 4 2 C4 2.66 4 3.32 4 4 C2.4 4.87 0.8 5.72 -0.81 6.56 C-1.71 7.04 -2.6 7.51 -3.52 8 C-6 9 -6 9 -9 8 C-7.39 6.23 -6.11 5.05 -3.94 4 C-1.67 3.03 -1.67 3.03 0 0 Z " fill="#A9ACAB" transform="translate(915,668)"/>
<path d="M0 0 C0.66 0.33 1.32 0.66 2 1 C0.35 2.69 -1.31 4.36 -3 6 C-3.74 6.73 -3.74 6.73 -4.49 7.48 C-6 8.88 -6 8.88 -9 11 C-11.88 10.81 -11.88 10.81 -14 10 C-10.97 7.7 -7.87 5.49 -4.75 3.31 C-3.41 2.38 -3.41 2.38 -2.05 1.43 C-1.37 0.96 -0.7 0.48 0 0 Z " fill="#686968" transform="translate(929,658)"/>
<path d="M0 0 C0.66 0 1.32 0 2 0 C1.67 1.32 1.34 2.64 1 4 C0.43 4.12 -0.13 4.24 -0.71 4.37 C-1.45 4.53 -2.18 4.7 -2.94 4.88 C-4.03 5.12 -4.03 5.12 -5.15 5.37 C-7.21 5.83 -7.21 5.83 -8 8 C-9.32 7.67 -10.64 7.34 -12 7 C-8.77 3.45 -5.6 2.11 -1 1 C-0.67 0.67 -0.34 0.34 0 0 Z " fill="#454545" transform="translate(777,467)"/>
<path d="M0 0 C0.99 0.33 1.98 0.66 3 1 C3.95 3.5 3.95 3.5 4.69 6.56 C4.94 7.57 5.19 8.59 5.45 9.63 C5.63 10.41 5.81 11.19 6 12 C5.01 12 4.02 12 3 12 C-0.43 4.71 -0.43 4.71 0 0 Z " fill="#505050" transform="translate(756,1005)"/>
<path d="M0 0 C0 0.66 0 1.32 0 2 C-1.32 2 -2.64 2 -4 2 C-4.33 2.66 -4.66 3.32 -5 4 C-5.66 4 -6.32 4 -7 4 C-7.66 4.66 -8.32 5.32 -9 6 C-9.66 5.67 -10.32 5.34 -11 5 C-10.67 3.68 -10.34 2.36 -10 1 C-3.38 -1.12 -3.38 -1.12 0 0 Z " fill="#9FA2A1" transform="translate(784,464)"/>
<path d="M0 0 C0.33 0 0.66 0 1 0 C0.89 2.73 0.76 5.46 0.62 8.19 C0.59 8.96 0.56 9.73 0.53 10.52 C0.31 14.74 -0.1 18.14 -2 22 C-3.89 18.87 -4.18 17.21 -3.32 13.67 C-3.04 12.47 -3.04 12.47 -2.75 11.25 C-2.55 10.43 -2.34 9.6 -2.12 8.75 C-1.93 7.91 -1.73 7.07 -1.52 6.2 C-1.03 4.13 -0.51 2.07 0 0 Z " fill="#1F201F" transform="translate(374,343)"/>
<path d="M0 0 C2.64 0 5.28 0 8 0 C8.33 0.99 8.66 1.98 9 3 C5.7 3 2.4 3 -1 3 C-0.67 2.01 -0.34 1.02 0 0 Z " fill="#B1B4B3" transform="translate(831,681)"/>
<path d="M0 0 C1.32 0.33 2.64 0.66 4 1 C4.33 3.31 4.66 5.62 5 8 C4.01 8 3.02 8 2 8 C1.34 5.36 0.68 2.72 0 0 Z " fill="#535353" transform="translate(957,422)"/>
<path d="M0 0 C2.86 2.86 2.99 4.66 3.06 8.69 C3.04 9.78 3.02 10.87 3 12 C0.71 9.71 0.48 8.54 -0.19 5.44 C-0.37 4.63 -0.55 3.83 -0.73 3 C-0.82 2.34 -0.91 1.68 -1 1 C-0.67 0.67 -0.34 0.34 0 0 Z " fill="#A5A8A7" transform="translate(757,1012)"/>
<path d="M0 0 C-2.53 3.09 -5.22 3.91 -9 5 C-8.81 3.12 -8.81 3.12 -8 1 C-4.71 -0.82 -3.64 -1.21 0 0 Z " fill="#595A5A" transform="translate(914,670)"/>
</svg>
